<svg id="visual" viewBox="0 0 960 540" width="960" height="540" xmlns="http://www.w3.org/2000/svg" xmlns:xlink="http://www.w3.org/1999/xlink" version="1.1"><path d="M0 244L69 244L69 174L137 174L137 152L206 152L206 244L274 244L274 174L343 174L343 228L411 228L411 163L480 163L480 185L549 185L549 158L617 158L617 255L686 255L686 217L754 217L754 136L823 136L823 249L891 249L891 190L960 190L960 136L960 0L960 0L891 0L891 0L823 0L823 0L754 0L754 0L686 0L686 0L617 0L617 0L549 0L549 0L480 0L480 0L411 0L411 0L343 0L343 0L274 0L274 0L206 0L206 0L137 0L137 0L69 0L69 0L0 0Z" fill="#1d2f6a"></path><path d="M0 449L69 449L69 374L137 374L137 379L206 379L206 395L274 395L274 357L343 357L343 428L411 428L411 395L480 395L480 449L549 449L549 411L617 411L617 384L686 384L686 411L754 411L754 401L823 401L823 422L891 422L891 417L960 417L960 368L960 134L960 188L891 188L891 247L823 247L823 134L754 134L754 215L686 215L686 253L617 253L617 156L549 156L549 183L480 183L480 161L411 161L411 226L343 226L343 172L274 172L274 242L206 242L206 150L137 150L137 172L69 172L69 242L0 242Z" fill="#192a60"></path><path d="M0 541L69 541L69 541L137 541L137 541L206 541L206 541L274 541L274 541L343 541L343 541L411 541L411 541L480 541L480 541L549 541L549 541L617 541L617 541L686 541L686 541L754 541L754 541L823 541L823 541L891 541L891 541L960 541L960 541L960 366L960 415L891 415L891 420L823 420L823 399L754 399L754 409L686 409L686 382L617 382L617 409L549 409L549 447L480 447L480 393L411 393L411 426L343 426L343 355L274 355L274 393L206 393L206 377L137 377L137 372L69 372L69 447L0 447Z" fill="#162557"></path></svg>